Coordinates
version=1
nRows=17
nColumns=24
inDegrees=yes

Units are S.I. units (second, meters, Newtons, ...)
Angles are in degrees.

endheader
time	pelvis_tilt	pelvis_list	pelvis_rotation	pelvis_tx	pelvis_ty	pelvis_tz	hip_flexion_r	hip_adduction_r	hip_rotation_r	knee_angle_r	ankle_angle_r	subtalar_angle_r	mtp_angle_r	hip_flexion_l	hip_adduction_l	hip_rotation_l	knee_angle_l	ankle_angle_l	subtalar_angle_l	mtp_angle_l	lumbar_extension	lumbar_bending	lumbar_rotation
      6.73000000	     39.16414147	      2.81216525	      6.01723175	      1.46010674	      0.67910786	     -0.28755539	    -18.33745587	     -4.39143766	    -18.04806286	    -52.37694576	     13.89147417	      2.13866853	      0.00000000	    -34.68053429	      2.38943477	      2.27211781	    -15.15917643	     17.65164765	     10.39042143	      0.00000000	    -64.46601067	      3.22502028	     -6.60320700
      6.73500000	     39.10029421	      3.02232742	      6.31954725	      1.46457651	      0.67906881	     -0.28745094	    -17.94398716	     -4.34975044	    -18.12049731	    -50.73630481	     14.13236355	      2.18592448	      0.00000000	    -35.14117128	      2.31844337	      2.51996216	    -14.97695540	     17.94010268	     10.56054236	      0.00000000	    -64.45102767	      3.22606356	     -6.77029687
      6.74000000	     39.11430836	      3.32271736	      6.69372085	      1.46904276	      0.67901536	     -0.28740466	    -17.73675300	     -4.37345701	    -18.32445519	    -48.96327085	     14.31012729	      2.06415905	      0.00000000	    -35.68200282	      2.27296309	      2.86926035	    -14.81998100	     18.25993495	     10.69832385	      0.00000000	    -64.50271622	      3.23832897	     -7.03769374
      6.74500000	     39.06482242	      3.57272145	      6.98400356	      1.47353117	      0.67887574	     -0.28733299	    -17.46415484	     -4.37443254	    -18.37272188	    -47.12258117	     14.42629316	      1.89286720	      0.00000000	    -36.13813061	      2.24267918	      3.16113484	    -14.69913315	     18.54886008	     10.80673700	      0.00000000	    -64.49100502	      3.22939141	     -7.25782663
      6.75000000	     39.03907264	      3.87645386	      7.29421781	      1.47801977	      0.67868667	     -0.28729484	    -17.28649781	     -4.43164733	    -18.48195599	    -45.18657565	     14.49529612	      1.61962662	      0.00000000	    -36.61558704	      2.24239073	      3.48479154	    -14.59997913	     18.86672151	     10.90818648	      0.00000000	    -64.50317295	      3.20447230	     -7.52586732
      6.75500000	     39.00991954	      4.19092297	      7.59632357	      1.48252637	      0.67844501	     -0.28728886	    -17.15818733	     -4.50854680	    -18.58872216	    -43.16046454	     14.51719206	      1.30740192	      0.00000000	    -37.08304629	      2.25756020	      3.81291136	    -14.52510997	     19.18928899	     10.98114135	      0.00000000	    -64.50649708	      3.18250300	     -7.79734648
      6.76000000	     38.96266924	      4.51294266	      7.86819075	      1.48704682	      0.67814272	     -0.28728599	    -17.05094035	     -4.61165946	    -18.67275312	    -41.05937772	     14.48284652	      0.92974188	      0.00000000	    -37.52469853	      2.29894240	      4.13003811	    -14.47358166	     19.50501922	     11.04323351	      0.00000000	    -64.49304120	      3.13755174	     -8.09152339
      6.76500000	     38.92036273	      4.86312982	      8.15373837	      1.49158719	      0.67779931	     -0.28731434	    -17.01444579	     -4.74261195	    -18.79760888	    -38.86930823	     14.40376324	      0.52298339	      0.00000000	    -37.96894249	      2.35240007	      4.46360882	    -14.44249662	     19.83018488	     11.09952323	      0.00000000	    -64.48100758	      3.09721858	     -8.41185034
      6.77000000	     38.88466192	      5.22761776	      8.43366001	      1.49614891	      0.67741505	     -0.28737136	    -17.04429215	     -4.89942817	    -18.96990750	    -36.59519808	     14.27466439	      0.10324635	      0.00000000	    -38.41901648	      2.41990731	      4.82123447	    -14.42801815	     20.15405987	     11.14902053	      0.00000000	    -64.47052332	      3.05357174	     -8.77141370
      6.77500000	     38.84534457	      5.61095423	      8.70528241	      1.50073091	      0.67698911	     -0.28743949	    -17.12572492	     -5.08433480	    -19.18243637	    -34.24791885	     14.12001061	     -0.29639728	      0.00000000	    -38.86464304	      2.50458831	      5.17540883	    -14.42921040	     20.46840611	     11.18863280	      0.00000000	    -64.45646787	      3.00223742	     -9.15124942
      6.78000000	     38.80413917	      6.01500398	      8.97336089	      1.50533320	      0.67652307	     -0.28751390	    -17.25776961	     -5.29475514	    -19.44065752	    -31.83686559	     13.92487491	     -0.65555765	      0.00000000	    -39.31003468	      2.60436470	      5.52993046	    -14.44157934	     20.77994173	     11.22603940	      0.00000000	    -64.43741656	      2.93908819	     -9.55362840
      6.78500000	     38.82217393	      6.47390907	      9.29791747	      1.50995174	      0.67604775	     -0.28763471	    -17.55317878	     -5.53916995	    -19.89190322	    -29.32952385	     13.79528619	     -0.85215556	      0.00000000	    -39.82200707	      2.69356732	      5.95871455	    -14.47378261	     21.11378184	     11.26491745	      0.00000000	    -64.48031841	      2.89571530	     -9.97336887
      6.79000000	     38.76716091	      6.90095217	      9.52211747	      1.51461458	      0.67550484	     -0.28766348	    -17.75637507	     -5.78836225	    -20.24444983	    -26.81741368	     13.55056885	     -1.07206785	      0.00000000	    -40.26366277	      2.82566800	      6.28465165	    -14.49256009	     21.40124433	     11.30766691	      0.00000000	    -64.44574117	      2.78787757	    -10.39000778
      6.79500000	     38.72305527	      7.34573264	      9.75319711	      1.51930553	      0.67494222	     -0.28767288	    -18.02514098	     -6.04573651	    -20.69750631	    -24.25309003	     13.28545245	     -1.14412457	      0.00000000	    -40.72308672	      2.95320077	      6.61637949	    -14.51313368	     21.68245302	     11.37195600	      0.00000000	    -64.42079553	      2.67781723	    -10.84554531
      6.80000000	     38.64281033	      7.76071128	      9.91909591	      1.52404033	      0.67432951	     -0.28760948	    -18.25278937	     -6.29351681	    -21.12175711	    -21.68766494	     12.94668145	     -1.10885501	      0.00000000	    -41.14844698	      3.09493127	      6.86999889	    -14.52786611	     21.96187292	     11.47255008	      0.00000000	    -64.35443807	      2.53687228	    -11.31554932
      6.80500000	     38.59195915	      8.21196685	     10.09523804	      1.52880521	      0.67370254	     -0.28749201	    -18.56363678	     -6.55542899	    -21.67184716	    -19.09243443	     12.66941396	     -0.84212058	      0.00000000	    -41.61647670	      3.23628213	      7.13187900	    -14.53783455	     22.23013451	     11.58913418	      0.00000000	    -64.32100587	      2.36682688	    -11.76788472
      6.81000000	     38.51044729	      8.64076106	     10.18779144	      1.53359037	      0.67300982	     -0.28723326	    -18.81066484	     -6.81062853	    -22.15844665	    -16.54619388	     12.38396918	     -0.50751299	      0.00000000	    -42.04960329	      3.40667523	      7.31598700	    -14.54944438	     22.48880197	     11.72739023	      0.00000000	    -64.26684850	      2.13042348	    -12.16450406
